<?xml version="1.0" encoding="utf-8"?>
<!DOCTYPE svg PUBLIC "-//W3C//DTD SVG 1.1//EN" "http://www.w3.org/Graphics/SVG/1.1/DTD/svg11.dtd">
<svg style="width:20px;height:20px;" version="1.1" id="图形" xmlns="http://www.w3.org/2000/svg" xmlns:xlink="http://www.w3.org/1999/xlink" x="0px" y="0px" width="20px" height="20px" viewBox="0 0 1024 1024" enable-background="new 0 0 1024 1024" xml:space="preserve">
  <path class="svgpath" data-index="path_0" fill="#ea8010" d="M853.703945 567.591748l0-196.424177-853.642176 0 0 439.545422c0 8.832911 3.08843 16.553987 7.288696 23.595609 7.844613 13.033176 21.248401 22.236699 37.184703 22.236699l0 0 764.695379 0c12.230185 0 23.348534-5.126795 31.440222-13.403788 8.029919-8.276994 13.033176-19.765955 13.033176-32.366751l170.296055-243.121245L853.703945 567.653517zM15.503921 386.609724l822.757872 0 0 180.982024-667.842201 0-154.853903 221.069852L15.565689 386.609724z" />
<path class="svgpath" data-index="path_1" fill="#ea8010" d="M0.061769 340.530341l853.642176 0 0-45.770539c0-12.230185-0.061769-40.705513-0.061769-40.705513l0-5.065026-4.87972 0c0 0-29.463626 0-39.470141 0l-485.995416 0-78.878514-81.472795-199.82145 0c-10.438895 0-39.346604 0.185306-39.655447 0.185306l-4.87972 0 0 5.065026c0 0 0.061769 28.907709 0.061769 40.581976L0.123537 340.530341z" />

</svg>
